<svg id="visual" viewBox="0 0 960 300" width="960" height="300" xmlns="http://www.w3.org/2000/svg" xmlns:xlink="http://www.w3.org/1999/xlink" version="1.1"><rect x="0" y="0" width="960" height="300" fill="#ffffff"></rect><path d="M0 272L16 276C32 280 64 288 96 288.5C128 289 160 282 192 280C224 278 256 281 288 280.2C320 279.3 352 274.7 384 273.8C416 273 448 276 480 278.2C512 280.3 544 281.7 576 281.5C608 281.3 640 279.7 672 278.2C704 276.7 736 275.3 768 277.7C800 280 832 286 864 288.3C896 290.7 928 289.3 944 288.7L960 288L960 301L944 301C928 301 896 301 864 301C832 301 800 301 768 301C736 301 704 301 672 301C640 301 608 301 576 301C544 301 512 301 480 301C448 301 416 301 384 301C352 301 320 301 288 301C256 301 224 301 192 301C160 301 128 301 96 301C64 301 32 301 16 301L0 301Z" fill="#d3d3d3" stroke-linecap="round" stroke-linejoin="miter"></path></svg>